<?xml version="1.0" encoding="UTF-8"?>
<svg version="1.1" xmlns="http://www.w3.org/2000/svg" width="350" height="123">
<path d="M0 0 C25.41 0 50.82 0 77 0 C77 40.26 77 80.52 77 122 C51.59 122 26.18 122 0 122 C0 81.74 0 41.48 0 0 Z " fill="#CF2F34" transform="translate(0,0)"/>
<path d="M0 0 C25.41 0 50.82 0 77 0 C77 9.24 77 18.48 77 28 C51.59 28 26.18 28 0 28 C0 18.76 0 9.52 0 0 Z " fill="#353434" transform="translate(0,94)"/>
<path d="M0 0 C1.32 0 2.64 0 4 0 C4 2.31 4 4.62 4 7 C6.64 7 9.28 7 12 7 C11.67 5.02 11.34 3.04 11 1 C12.32 1 13.64 1 15 1 C15.495 2.485 15.495 2.485 16 4 C17.98 4 19.96 4 22 4 C22 5.32 22 6.64 22 8 C21.01 8.33 20.02 8.66 19 9 C19.5590888 12.24271506 20.4132178 13.93057424 23 16 C23.66 16 24.32 16 25 16 C25.66 14.68 26.32 13.36 27 12 C27.99 12.33 28.98 12.66 30 13 C29.9071875 14.3921875 29.9071875 14.3921875 29.8125 15.8125 C29.67622737 18.97943248 29.67622737 18.97943248 31.5 20.75 C31.995 21.1625 32.49 21.575 33 22 C33 22.66 33 23.32 33 24 C30.69 23.67 28.38 23.34 26 23 C26 25.64 26 28.28 26 31 C27.98 31 29.96 31 32 31 C32 32.32 32 33.64 32 35 C30.68 35 29.36 35 28 35 C28.185625 35.94875 28.37125 36.8975 28.5625 37.875 C29 41 29 41 28 43 C27.01 42.67 26.02 42.34 25 42 C25 40.68 25 39.36 25 38 C22.0280615 39.12451727 19.66559313 40.22293791 17 42 C17 42.99 17 43.98 17 45 C18.32 45.66 19.64 46.32 21 47 C21 47.66 21 48.32 21 49 C17.86650268 50.04449911 17.01031744 49.93423645 14 49 C13.67 49.99 13.34 50.98 13 52 C11.68 52 10.36 52 9 52 C9.33 50.02 9.66 48.04 10 46 C7.03 45.67 4.06 45.34 1 45 C1.33 47.31 1.66 49.62 2 52 C0.68 52 -0.64 52 -2 52 C-2.33 50.68 -2.66 49.36 -3 48 C-5.475 48.495 -5.475 48.495 -8 49 C-8.66 48.01 -9.32 47.02 -10 46 C-8.68 45.34 -7.36 44.68 -6 44 C-6.57452746 40.06924356 -6.57452746 40.06924356 -9 37 C-9.99 37 -10.98 37 -12 37 C-12.66 38.32 -13.32 39.64 -14 41 C-14.66 41 -15.32 41 -16 41 C-16.33 39.68 -16.66 38.36 -17 37 C-16.34 37 -15.68 37 -15 37 C-15.495 35.515 -15.495 35.515 -16 34 C-16.99 33.67 -17.98 33.34 -19 33 C-19 31.68 -19 30.36 -19 29 C-16.69 29.33 -14.38 29.66 -12 30 C-12.33 27.03 -12.66 24.06 -13 21 C-14.65 21.33 -16.3 21.66 -18 22 C-18.33 20.68 -18.66 19.36 -19 18 C-18.01 17.67 -17.02 17.34 -16 17 C-15.67 14.69 -15.34 12.38 -15 10 C-14.01 10.33 -13.02 10.66 -12 11 C-11.67 11.99 -11.34 12.98 -11 14 C-8.07120629 13.37240135 -5.63904371 12.41377341 -3 11 C-3.66868314 7.88667752 -3.66868314 7.88667752 -6.0625 6.8125 C-6.701875 6.544375 -7.34125 6.27625 -8 6 C-7.67 5.01 -7.34 4.02 -7 3 C-4.69 3.33 -2.38 3.66 0 4 C0 2.68 0 1.36 0 0 Z " fill="#373334" transform="translate(31,6)"/>
<path d="M0 0 C3.63 0 7.26 0 11 0 C11 4.95 11 9.9 11 15 C11.66 15 12.32 15 13 15 C13 10.05 13 5.1 13 0 C16.96 0 20.92 0 25 0 C25.02467467 5.65999023 25.04284788 11.31994932 25.05493164 16.97998047 C25.05996787 18.90641831 25.06679712 20.83285231 25.07543945 22.75927734 C25.08753608 25.52442368 25.09323533 28.28951958 25.09765625 31.0546875 C25.10281754 31.9193161 25.10797882 32.7839447 25.11329651 33.67477417 C25.11387171 39.77225659 25.11387171 39.77225659 24 42 C20.37 42 16.74 42 13 42 C13 36.39 13 30.78 13 25 C12.34 25 11.68 25 11 25 C11 30.61 11 36.22 11 42 C7.37 42 3.74 42 0 42 C0 28.14 0 14.28 0 0 Z " fill="#171D2D" transform="translate(120,3)"/>
<path d="M0 0 C3.3 0 6.6 0 10 0 C11.32 3.96 12.64 7.92 14 12 C14.33 8.04 14.66 4.08 15 0 C18.3 0 21.6 0 25 0 C25 13.86 25 27.72 25 42 C21.37 42 17.74 42 14 42 C13.01 38.7 12.02 35.4 11 32 C10.67 35.3 10.34 38.6 10 42 C6.7 42 3.4 42 0 42 C0 28.14 0 14.28 0 0 Z " fill="#171D2D" transform="translate(119,53)"/>
<path d="M0 0 C3.3 0 6.6 0 10 0 C11.32 3.96 12.64 7.92 14 12 C14.33 8.04 14.66 4.08 15 0 C18.3 0 21.6 0 25 0 C25 13.86 25 27.72 25 42 C21.37 42 17.74 42 14 42 C13.01 38.7 12.02 35.4 11 32 C10.67 35.3 10.34 38.6 10 42 C6.7 42 3.4 42 0 42 C0 28.14 0 14.28 0 0 Z " fill="#171D2D" transform="translate(173,3)"/>
<path d="M0 0 C18.45454545 0 18.45454545 0 22.75 3.375 C26.55250462 8.318256 25.18430553 16.06926292 25.1875 21.9375 C25.19974609 23.11763672 25.21199219 24.29777344 25.22460938 25.51367188 C25.22750977 27.22200195 25.22750977 27.22200195 25.23046875 28.96484375 C25.23457764 30.0024585 25.23868652 31.04007324 25.24291992 32.10913086 C24.98385219 35.19216703 24.49039521 37.28866455 23 40 C19 42 19 42 0 42 C0 28.14 0 14.28 0 0 Z M11 8 C11 16.58 11 25.16 11 34 C11.66 34 12.32 34 13 34 C13 25.75 13 17.5 13 9 C12.34 8.67 11.68 8.34 11 8 Z " fill="#171D2D" transform="translate(201,3)"/>
<path d="M0 0 C3.63 0 7.26 0 11 0 C11 4.95 11 9.9 11 15 C11.66 15 12.32 15 13 15 C13 10.05 13 5.1 13 0 C16.63 0 20.26 0 24 0 C24 13.86 24 27.72 24 42 C20.37 42 16.74 42 13 42 C13 36.39 13 30.78 13 25 C12.34 25 11.68 25 11 25 C11 30.61 11 36.22 11 42 C7.37 42 3.74 42 0 42 C0 28.14 0 14.28 0 0 Z " fill="#171D2D" transform="translate(324,3)"/>
<path d="M0 0 C16.71428571 0 16.71428571 0 21 2 C24.57994812 5.69543032 24.32332841 9.71995386 24.30078125 14.59765625 C23.98365957 17.13051122 23.27224682 18.80524751 22 21 C22.66 21.99 23.32 22.98 24 24 C24.22705078 25.99291992 24.22705078 25.99291992 24.1953125 28.23046875 C24.18886719 29.03291016 24.18242187 29.83535156 24.17578125 30.66210938 C24.15902344 31.49548828 24.14226562 32.32886719 24.125 33.1875 C24.11597656 34.03248047 24.10695312 34.87746094 24.09765625 35.74804688 C24.07410703 37.83215243 24.03823647 39.91611217 24 42 C20.37 42 16.74 42 13 42 C13 36.06 13 30.12 13 24 C12.34 24 11.68 24 11 24 C11 29.94 11 35.88 11 42 C7.37 42 3.74 42 0 42 C0 28.14 0 14.28 0 0 Z M11 9 C11 11.31 11 13.62 11 16 C11.66 16 12.32 16 13 16 C13 13.69 13 11.38 13 9 C12.34 9 11.68 9 11 9 Z " fill="#171D2D" transform="translate(209,53)"/>
<path d="M0 0 C3.63 0 7.26 0 11 0 C11 11.55 11 23.1 11 35 C11.66 35 12.32 35 13 35 C13 23.45 13 11.9 13 0 C16.63 0 20.26 0 24 0 C24.12385084 5.17772746 24.21445571 10.35458788 24.2746582 15.53344727 C24.29976061 17.29401676 24.33385028 19.05448247 24.37719727 20.81469727 C24.43804115 23.34938179 24.46625113 25.88268575 24.48828125 28.41796875 C24.51408768 29.20149216 24.5398941 29.98501556 24.56648254 30.7922821 C24.56865409 35.049578 24.37668017 36.53432039 21.59448242 39.97387695 C17.10265921 43.4817005 13.57072036 43.53366565 8 43 C3.93337338 41.44728802 2.42480398 40.63720598 0 37 C-0.17193073 34.17016801 -0.23208437 31.44118127 -0.1953125 28.61328125 C-0.1924826 27.79627243 -0.18965271 26.97926361 -0.18673706 26.13749695 C-0.17554541 23.52901541 -0.1504429 20.9208777 -0.125 18.3125 C-0.11496888 16.54362475 -0.10584326 14.77474412 -0.09765625 13.00585938 C-0.07560942 8.67044051 -0.0410867 4.33527855 0 0 Z " fill="#171D2D" transform="translate(92,53)"/>
<path d="M0 0 C17.55172414 0 17.55172414 0 22 3 C24.65322848 7.0375216 24.2261517 11.32619825 24 16 C23 19 23 19 21 20 C21.49113281 20.64324219 21.98226563 21.28648438 22.48828125 21.94921875 C24.50821504 26.0256226 24.33376355 29.33833557 24.1875 33.8125 C24.16719727 34.99489258 24.16719727 34.99489258 24.14648438 36.20117188 C24.11133456 38.13441169 24.05753361 40.06729682 24 42 C20.37 42 16.74 42 13 42 C13 36.06 13 30.12 13 24 C12.34 24 11.68 24 11 24 C11 29.94 11 35.88 11 42 C7.37 42 3.74 42 0 42 C0 28.14 0 14.28 0 0 Z M11 8 C11 10.64 11 13.28 11 16 C11.66 16 12.32 16 13 16 C13 13.69 13 11.38 13 9 C12.34 8.67 11.68 8.34 11 8 Z " fill="#171D2D" transform="translate(297,3)"/>
<path d="M0 0 C3.45855505 2.08112187 5.69347606 4.08042819 7 8 C7.12781786 10.67394964 7.04391871 13.32095857 7 16 C3.04 16 -0.92 16 -5 16 C-5.33 13.36 -5.66 10.72 -6 8 C-6 16.58 -6 25.16 -6 34 C-5.67 34 -5.34 34 -5 34 C-4.67 31.36 -4.34 28.72 -4 26 C-4.66 26 -5.32 26 -6 26 C-6 23.69 -6 21.38 -6 19 C-1.71 19 2.58 19 7 19 C7 26.59 7 34.18 7 42 C3.66666667 42 0.33333333 42 -3 42 C-4.0725 42.2475 -5.145 42.495 -6.25 42.75 C-10.93456258 43.06230417 -12.49056151 42.0197494 -16 39 C-19.43681329 33.77140005 -18.32762412 27.066777 -18.3125 21.0625 C-18.32861328 19.78697266 -18.34472656 18.51144531 -18.36132812 17.19726562 C-18.36197266 15.96814453 -18.36261719 14.73902344 -18.36328125 13.47265625 C-18.36775269 11.79055054 -18.36775269 11.79055054 -18.37231445 10.07446289 C-17.95278949 6.61014958 -17.09709911 4.76773106 -15 2 C-9.8972365 -1.00162559 -5.59269671 -1.87932724 0 0 Z " fill="#171D2D" transform="translate(261,3)"/>
<path d="M0 0 C3.96 0 7.92 0 12 0 C12.66 5.28 13.32 10.56 14 16 C14.66 10.72 15.32 5.44 16 0 C19.96 0 23.92 0 28 0 C26.70390658 14.05880157 24.99287507 28.02330283 23 42 C17.39 42 11.78 42 6 42 C4.34329382 34.09706379 3.051565 26.17506903 1.875 18.1875 C1.60236328 16.38635742 1.60236328 16.38635742 1.32421875 14.54882812 C1.15277344 13.39189453 0.98132813 12.23496094 0.8046875 11.04296875 C0.64983887 10.00164795 0.49499023 8.96032715 0.33544922 7.88745117 C0 5 0 5 0 0 Z " fill="#171D2D" transform="translate(159,53)"/>
<path d="M0 0 C5.28 0 10.56 0 16 0 C16.69546891 4.53466259 17.38978716 9.06947258 18.08129883 13.60473633 C18.31632115 15.14389895 18.55198451 16.68296384 18.78833008 18.22192383 C20.00297944 26.13383645 21.21132269 34.03163959 22 42 C18.04 42 14.08 42 10 42 C10 39.69 10 37.38 10 35 C9.01 35 8.02 35 7 35 C7.020625 35.969375 7.04125 36.93875 7.0625 37.9375 C7 41 7 41 6 42 C4.14712498 42.07226502 2.29166122 42.0838122 0.4375 42.0625 C-0.57441406 42.05347656 -1.58632813 42.04445312 -2.62890625 42.03515625 C-3.41136719 42.02355469 -4.19382812 42.01195312 -5 42 C-4.58193524 32.87465544 -3.68410794 23.8697495 -2.5 14.8125 C-2.36940186 13.80888428 -2.23880371 12.80526855 -2.10424805 11.77124023 C-1.56658055 7.75899444 -0.98366224 3.93464897 0 0 Z M8 16 C7.67 19.3 7.34 22.6 7 26 C7.66 26 8.32 26 9 26 C9 22.7 9 19.4 9 16 C8.67 16 8.34 16 8 16 Z " fill="#171D2D" transform="translate(274,3)"/>
<path d="M0 0 C1.48831242 0.00667405 2.97660807 0.01863442 4.46484375 0.03515625 C5.22345703 0.03966797 5.98207031 0.04417969 6.76367188 0.04882812 C8.64326246 0.06064945 10.52281274 0.07858547 12.40234375 0.09765625 C13.12198644 4.79217644 13.83377089 9.48779928 14.53857422 14.18457031 C14.77897627 15.77929101 15.02145233 17.37370058 15.26611328 18.96777344 C15.61918707 21.2706792 15.9645699 23.57463327 16.30859375 25.87890625 C16.41796265 26.58132446 16.52733154 27.28374268 16.64001465 28.00744629 C17.33823012 32.75109692 17.49636851 37.30239325 17.40234375 42.09765625 C13.77234375 42.09765625 10.14234375 42.09765625 6.40234375 42.09765625 C6.40234375 39.78765625 6.40234375 37.47765625 6.40234375 35.09765625 C5.41234375 35.09765625 4.42234375 35.09765625 3.40234375 35.09765625 C3.07234375 37.40765625 2.74234375 39.71765625 2.40234375 42.09765625 C-1.22765625 42.09765625 -4.85765625 42.09765625 -8.59765625 42.09765625 C-8.84330312 33.99130966 -8.01882083 26.16771677 -6.94360352 18.15356445 C-6.6566522 16.00896792 -6.38140062 13.86308548 -6.10742188 11.71679688 C-4.59164234 0.12463741 -4.59164234 0.12463741 0 0 Z M3.40234375 17.09765625 C3.40234375 20.06765625 3.40234375 23.03765625 3.40234375 26.09765625 C4.06234375 26.09765625 4.72234375 26.09765625 5.40234375 26.09765625 C5.07234375 23.12765625 4.74234375 20.15765625 4.40234375 17.09765625 C4.07234375 17.09765625 3.74234375 17.09765625 3.40234375 17.09765625 Z " fill="#171D2D" transform="translate(154.59765625,2.90234375)"/>
<path d="M0 0 C4.79179154 4.90866451 3.63913814 10.1107584 3.5625 16.625 C-0.0675 16.625 -3.6975 16.625 -7.4375 16.625 C-7.7675 12.995 -8.0975 9.365 -8.4375 5.625 C-8.7675 5.625 -9.0975 5.625 -9.4375 5.625 C-9.7675 14.535 -10.0975 23.445 -10.4375 32.625 C-9.7775 32.625 -9.1175 32.625 -8.4375 32.625 C-8.1075 29.325 -7.7775 26.025 -7.4375 22.625 C-3.8075 22.625 -0.1775 22.625 3.5625 22.625 C3.87002288 29.49301088 3.63520823 33.04017373 -0.9375 38.375 C-4.36926867 41.23480722 -8.19566185 40.91258225 -12.4375 40.625 C-16.54967353 39.0433948 -19.31001055 37.54405951 -21.4375 33.625 C-22.52001647 28.6559487 -22.62077715 23.80897555 -22.625 18.75 C-22.63724609 17.98558594 -22.64949219 17.22117187 -22.66210938 16.43359375 C-22.67787134 10.24439448 -22.57349832 3.8172088 -18.0625 -0.8125 C-12.14770908 -4.33320888 -5.51104631 -4.40883705 0 0 Z " fill="#171D2D" transform="translate(113.4375,5.375)"/>
<path d="M0 0 C3.67930728 2.09215512 4.6704934 3.01148019 6 7 C6.03954234 9.33299825 6.04401732 11.66708189 6 14 C1.545 14.495 1.545 14.495 -3 15 C-2.04287109 15.79664062 -2.04287109 15.79664062 -1.06640625 16.609375 C-0.24011719 17.31578125 0.58617187 18.0221875 1.4375 18.75 C2.26121094 19.44609375 3.08492188 20.1421875 3.93359375 20.859375 C7.41847665 24.46942383 7.29748303 28.09906973 7.21484375 33.0390625 C6.77318773 37.07017747 4.86948418 39.25838114 1.875 41.8125 C-2.17139883 43.48383865 -5.68416334 43.67624905 -10 43 C-13.83546184 41.18687258 -15.50989221 40.00249321 -17.375 36.1875 C-18.0558131 32.7153532 -18.1411951 29.5298774 -18 26 C-14.04 25.505 -14.04 25.505 -10 25 C-10.94875 24.2575 -11.8975 23.515 -12.875 22.75 C-16.06928536 20.2501245 -17.73920375 17.89331305 -18.30078125 13.81640625 C-18.32555605 9.05138582 -18.14317911 5.84166336 -15 2 C-10.33776545 -1.10815637 -5.45984696 -0.61156181 0 0 Z M-7 8 C-7 9.65 -7 11.3 -7 13 C-6.01 13.495 -6.01 13.495 -5 14 C-5 12.02 -5 10.04 -5 8 C-5.66 8 -6.32 8 -7 8 Z M-7 27 C-7 29.64 -7 32.28 -7 35 C-6.01 34.67 -5.02 34.34 -4 34 C-4.33 31.69 -4.66 29.38 -5 27 C-5.66 27 -6.32 27 -7 27 Z " fill="#171D2D" transform="translate(253,53)"/>
<path d="M0 0 C7.59 0 15.18 0 23 0 C22.67 0.99 22.34 1.98 22 3 C22.66 3 23.32 3 24 3 C24 3.99 24 4.98 24 6 C23.34 6 22.68 6 22 6 C22 6.66 22 7.32 22 8 C22.99 7.67 23.98 7.34 25 7 C25.73323796 4.98491642 25.73323796 4.98491642 26 3 C26.763125 3.185625 27.52625 3.37125 28.3125 3.5625 C31.08967375 4.22819173 31.08967375 4.22819173 34 3 C34 3.99 34 4.98 34 6 C34.66 6 35.32 6 36 6 C36.33 5.01 36.66 4.02 37 3 C37 5.64 37 8.28 37 11 C36.505 9.515 36.505 9.515 36 8 C35.34 8 34.68 8 34 8 C34 9.32 34 10.64 34 12 C33.34 12 32.68 12 32 12 C32 12.99 32 13.98 32 15 C32.66 14.67 33.32 14.34 34 14 C33.34 16.64 32.68 19.28 32 22 C31.731875 21.401875 31.46375 20.80375 31.1875 20.1875 C30.01506533 18.02775192 28.80630718 16.64209744 27 15 C27 17.31 27 19.62 27 22 C26.34 22 25.68 22 25 22 C24.505 19.03 24.505 19.03 24 16 C23.67 17.98 23.34 19.96 23 22 C20.69 22 18.38 22 16 22 C16.33 21.34 16.66 20.68 17 20 C17.66 20.33 18.32 20.66 19 21 C19 20.34 19 19.68 19 19 C18.01 18.67 17.02 18.34 16 18 C16 16.68 16 15.36 16 14 C16.763125 13.855625 17.52625 13.71125 18.3125 13.5625 C21.08172908 13.0367406 21.08172908 13.0367406 24 12 C24 11.34 24 10.68 24 10 C23.34 10 22.68 10 22 10 C22 10.66 22 11.32 22 12 C19.125 12.125 19.125 12.125 16 12 C14 10 14 10 13.875 6.875 C13.91625 5.92625 13.9575 4.9775 14 4 C13.67 6.64 13.34 9.28 13 12 C7.66666667 12 2.33333333 12 -3 12 C-3 11.34 -3 10.68 -3 10 C-3.99 10 -4.98 10 -6 10 C-6 10.66 -6 11.32 -6 12 C-7.65 12 -9.3 12 -11 12 C-7.32589215 13.17571451 -3.83070817 13.07366746 0 13 C0 14.65 0 16.3 0 18 C0.66 18 1.32 18 2 18 C2 16.68 2 15.36 2 14 C5.96 14 9.92 14 14 14 C15 19 15 19 15 22 C14.34 22 13.68 22 13 22 C13 19.69 13 17.38 13 15 C12.34 15 11.68 15 11 15 C11 17.31 11 19.62 11 22 C8.69 22 6.38 22 4 22 C3.67 21.34 3.34 20.68 3 20 C2.67 20.66 2.34 21.32 2 22 C1.34 22 0.68 22 0 22 C-0.33 21.34 -0.66 20.68 -1 20 C-1.33 20.66 -1.66 21.32 -2 22 C-6.66666667 22 -11.33333333 22 -16 22 C-16.02689216 20.52093108 -16.04634621 19.04172517 -16.0625 17.5625 C-16.07410156 16.73878906 -16.08570313 15.91507813 -16.09765625 15.06640625 C-16 13 -16 13 -15 12 C-16.32 11.67 -17.64 11.34 -19 11 C-19 8.69 -19 6.38 -19 4 C-17.68 3.67 -16.36 3.34 -15 3 C-15 3.99 -15 4.98 -15 6 C-15.66 5.67 -16.32 5.34 -17 5 C-17.33 6.65 -17.66 8.3 -18 10 C-16.35 9.34 -14.7 8.68 -13 8 C-13 6.35 -13 4.7 -13 3 C-12.67 3.99 -12.34 4.98 -12 6 C-11.34 6 -10.68 6 -10 6 C-10 5.01 -10 4.02 -10 3 C-9.34 3 -8.68 3 -8 3 C-7.67 4.32 -7.34 5.64 -7 7 C-6.34 5.68 -5.68 4.36 -5 3 C-4.34 3.33 -3.68 3.66 -3 4 C-2.67 4.99 -2.34 5.98 -2 7 C-1.34 4.69 -0.68 2.38 0 0 Z " fill="#585657" transform="translate(29,95)"/>
<path d="M0 0 C77.55 0 155.1 0 235 0 C235 0.99 235 1.98 235 3 C157.45 3 79.9 3 0 3 C0 2.01 0 1.02 0 0 Z " fill="#171D2D" transform="translate(91,102)"/>
<path d="M0 0 C5.94 0 11.88 0 18 0 C18 3.3 18 6.6 18 10 C15.69 10 13.38 10 11 10 C11 11.98 11 13.96 11 16 C13.31 16 15.62 16 18 16 C18 18.97 18 21.94 18 25 C15.69 25 13.38 25 11 25 C11 27.64 11 30.28 11 33 C13.64 33 16.28 33 19 33 C19 35.97 19 38.94 19 42 C12.73 42 6.46 42 0 42 C0 28.14 0 14.28 0 0 Z " fill="#171D2D" transform="translate(188,53)"/>
<path d="M0 0 C3.3 0 6.6 0 10 0 C10.66 1.98 11.32 3.96 12 6 C12.33 6 12.66 6 13 6 C13.66 4.02 14.32 2.04 15 0 C18.3 0 21.6 0 25 0 C24.48900268 4.47703336 23.61615798 8.45173536 22.18432617 12.74829102 C18.94987792 22.50471626 18.13167101 31.7655714 18 42 C14.37 42 10.74 42 7 42 C6.99742187 41.02804688 6.99484375 40.05609375 6.9921875 39.0546875 C6.73270859 27.14211325 4.0224923 16.44647116 0.53491211 5.09033203 C0 3 0 3 0 0 Z " fill="#171D2D" transform="translate(299,53)"/>
<path d="M0 0 C7.59 0 15.18 0 23 0 C23.33 3.3 23.66 6.6 24 10 C21.69 10 19.38 10 17 10 C17 20.56 17 31.12 17 42 C13.37 42 9.74 42 6 42 C6 31.44 6 20.88 6 10 C4.02 10 2.04 10 0 10 C0 6.7 0 3.4 0 0 Z " fill="#171D2D" transform="translate(275,53)"/>
<path d="M0 0 C2.31 0 4.62 0 7 0 C7 0.66 7 1.32 7 2 C6.34 2 5.68 2 5 2 C5.33 2.99 5.66 3.98 6 5 C7.32 5 8.64 5 10 5 C10.66 4.34 11.32 3.68 12 3 C13.5 4.375 13.5 4.375 15 6 C15 6.66 15 7.32 15 8 C14.01 8.495 14.01 8.495 13 9 C13 10.32 13 11.64 13 13 C14.32 13 15.64 13 17 13 C17 14.98 17 16.96 17 19 C15.68 19 14.36 19 13 19 C12.67 20.32 12.34 21.64 12 23 C12.99 23 13.98 23 15 23 C14.1875 24.9375 14.1875 24.9375 13 27 C12.01 27.33 11.02 27.66 10 28 C9.67 27.34 9.34 26.68 9 26 C7.68 26 6.36 26 5 26 C4.67 26.99 4.34 27.98 4 29 C2.68 29 1.36 29 0 29 C-0.66 27.68 -1.32 26.36 -2 25 C-3.98 25.66 -5.96 26.32 -8 27 C-8.99 25.35 -9.98 23.7 -11 22 C-10.01 21.67 -9.02 21.34 -8 21 C-8 20.01 -8 19.02 -8 18 C-9.32 18 -10.64 18 -12 18 C-12 15.69 -12 13.38 -12 11 C-9.525 11.495 -9.525 11.495 -7 12 C-7.57344937 9.13275314 -7.8614515 8.1385485 -10 6 C-8.71034824 4.62437146 -7.37310707 3.29233607 -6 2 C-5.34 2 -4.68 2 -4 2 C-3.67 2.99 -3.34 3.98 -3 5 C-2.01 5 -1.02 5 0 5 C0 3.35 0 1.7 0 0 Z " fill="#F86E5F" transform="translate(35,17)"/>
<path d="M0 0 C3.96 0 7.92 0 12 0 C12 13.86 12 27.72 12 42 C8.04 42 4.08 42 0 42 C0 28.14 0 14.28 0 0 Z " fill="#171D2D" transform="translate(262,53)"/>
<path d="M0 0 C3.63 0 7.26 0 11 0 C11 13.86 11 27.72 11 42 C7.37 42 3.74 42 0 42 C0 28.14 0 14.28 0 0 Z " fill="#171D2D" transform="translate(147,53)"/>
<path d="M0 0 C3.63 0 7.26 0 11 0 C11 13.86 11 27.72 11 42 C7.37 42 3.74 42 0 42 C0 28.14 0 14.28 0 0 Z " fill="#171D2D" transform="translate(229,3)"/>
<path d="M0 0 C2.0625 0.4375 2.0625 0.4375 4 1 C3.67 1.66 3.34 2.32 3 3 C2.34 2.67 1.68 2.34 1 2 C0.67 3.65 0.34 5.3 0 7 C1.65 6.34 3.3 5.68 5 5 C5 3.35 5 1.7 5 0 C5.33 0.99 5.66 1.98 6 3 C6.66 3 7.32 3 8 3 C8 2.01 8 1.02 8 0 C8.66 0 9.32 0 10 0 C10.33 1.32 10.66 2.64 11 4 C11.66 2.68 12.32 1.36 13 0 C13.66 0.33 14.32 0.66 15 1 C15.33 1.99 15.66 2.98 16 4 C16.33 2.68 16.66 1.36 17 0 C17.66 0 18.32 0 19 0 C19.33 0.66 19.66 1.32 20 2 C20.66 1.34 21.32 0.68 22 0 C22 2.64 22 5.28 22 8 C19.69 8.33 17.38 8.66 15 9 C15 8.34 15 7.68 15 7 C14.01 7 13.02 7 12 7 C12 7.66 12 8.32 12 9 C10.35 9 8.7 9 7 9 C10.67410785 10.17571451 14.16929183 10.07366746 18 10 C18 11.65 18 13.3 18 15 C18.66 15 19.32 15 20 15 C20 13.68 20 12.36 20 11 C23.96 11 27.92 11 32 11 C33 16 33 16 33 19 C32.34 19 31.68 19 31 19 C31 16.69 31 14.38 31 12 C30.34 12 29.68 12 29 12 C29 14.31 29 16.62 29 19 C26.69 19 24.38 19 22 19 C21.67 18.34 21.34 17.68 21 17 C20.67 17.66 20.34 18.32 20 19 C19.34 19 18.68 19 18 19 C17.67 18.34 17.34 17.68 17 17 C16.67 17.66 16.34 18.32 16 19 C11.33333333 19 6.66666667 19 2 19 C1.97310784 17.52093108 1.95365379 16.04172517 1.9375 14.5625 C1.92589844 13.73878906 1.91429687 12.91507813 1.90234375 12.06640625 C2 10 2 10 3 9 C1.68 8.67 0.36 8.34 -1 8 C-1.04241723 5.66705225 -1.04092937 3.33297433 -1 1 C-0.67 0.67 -0.34 0.34 0 0 Z " fill="#A4A3A4" transform="translate(11,98)"/>
<path d="M0 0 C2.31 0 4.62 0 7 0 C7 6.27 7 12.54 7 19 C7.66 19 8.32 19 9 19 C9 12.73 9 6.46 9 0 C11.31 0 13.62 0 16 0 C16.0868329 3.458176 16.14033282 6.91607344 16.1875 10.375 C16.21263672 11.35984375 16.23777344 12.3446875 16.26367188 13.359375 C16.27333984 14.30039063 16.28300781 15.24140625 16.29296875 16.2109375 C16.3086792 17.08024902 16.32438965 17.94956055 16.34057617 18.84521484 C16.22818604 19.55629395 16.1157959 20.26737305 16 21 C12.76085771 23.15942819 11.75140267 23.27232978 8 23.25 C7.13375 23.25515625 6.2675 23.2603125 5.375 23.265625 C3 23 3 23 0 21 C-0.34057617 18.84521484 -0.34057617 18.84521484 -0.29296875 16.2109375 C-0.2784668 14.79941406 -0.2784668 14.79941406 -0.26367188 13.359375 C-0.23853516 12.37453125 -0.21339844 11.3896875 -0.1875 10.375 C-0.17396484 9.38242188 -0.16042969 8.38984375 -0.14648438 7.3671875 C-0.11105743 4.91091928 -0.06166196 2.45572715 0 0 Z " fill="#FDFAFA" transform="translate(40,66)"/>
<path d="M0 0 C2.81009519 1.00875212 3.66697708 1.33395417 5 4 C5.04022391 6.3329866 5.04320247 8.66706666 5 11 C2.69 11 0.38 11 -2 11 C-2.33 9.02 -2.66 7.04 -3 5 C-3.33 5 -3.66 5 -4 5 C-4 9.95 -4 14.9 -4 20 C-3.34 20.33 -2.68 20.66 -2 21 C-2 19.02 -2 17.04 -2 15 C0.31 15 2.62 15 5 15 C5.36507937 20.47619048 5.36507937 20.47619048 3.83203125 22.67578125 C1.32308014 24.48928749 -0.42975529 24.39976004 -3.5 24.375 C-4.4590625 24.38273437 -5.418125 24.39046875 -6.40625 24.3984375 C-9 24 -9 24 -10.81640625 23.00390625 C-12.75137615 19.7278681 -12.47162445 16.25724716 -12.4375 12.5625 C-12.45748047 11.79873047 -12.47746094 11.03496094 -12.49804688 10.24804688 C-12.49481077 6.52976551 -12.41433698 4.58553555 -10.22265625 1.48828125 C-6.78714012 -0.81212586 -3.98912808 -0.55700351 0 0 Z " fill="#FDF8F8" transform="translate(32,65)"/>
<path d="M0 0 C4.45850936 0.79616239 5.90783917 1.93313458 8.5 5.625 C9.125 9.125 9.125 9.125 8.5 12.625 C5.90783917 16.31686542 4.45850936 17.45383761 0 18.25 C-4.45850936 17.45383761 -5.90783917 16.31686542 -8.5 12.625 C-9.125 9.125 -9.125 9.125 -8.5 5.625 C-5.90783917 1.93313458 -4.45850936 0.79616239 0 0 Z " fill="#77C4EB" transform="translate(37.5,23.375)"/>
<path d="M0 0 C0.66 0 1.32 0 2 0 C2 0.99 2 1.98 2 3 C1.34 3 0.68 3 0 3 C0 3.66 0 4.32 0 5 C0.99 4.67 1.98 4.34 3 4 C3.73323796 1.98491642 3.73323796 1.98491642 4 0 C4.763125 0.185625 5.52625 0.37125 6.3125 0.5625 C9.08967375 1.22819173 9.08967375 1.22819173 12 0 C12 0.99 12 1.98 12 3 C12.66 3 13.32 3 14 3 C14.33 2.01 14.66 1.02 15 0 C15 2.64 15 5.28 15 8 C14.67 7.01 14.34 6.02 14 5 C13.34 5 12.68 5 12 5 C12 6.32 12 7.64 12 9 C11.34 9 10.68 9 10 9 C10 9.99 10 10.98 10 12 C10.66 11.67 11.32 11.34 12 11 C11.34 13.64 10.68 16.28 10 19 C9.5978125 18.1028125 9.5978125 18.1028125 9.1875 17.1875 C8.01506533 15.02775192 6.80630718 13.64209744 5 12 C5 14.31 5 16.62 5 19 C4.34 19 3.68 19 3 19 C2.67 17.02 2.34 15.04 2 13 C1.67 14.98 1.34 16.96 1 19 C-1.31 19 -3.62 19 -6 19 C-5.67 18.34 -5.34 17.68 -5 17 C-4.34 17.33 -3.68 17.66 -3 18 C-3 17.34 -3 16.68 -3 16 C-3.99 15.67 -4.98 15.34 -6 15 C-6 13.68 -6 12.36 -6 11 C-5.236875 10.855625 -4.47375 10.71125 -3.6875 10.5625 C-0.91827092 10.0367406 -0.91827092 10.0367406 2 9 C2 8.34 2 7.68 2 7 C0.68 7.33 -0.64 7.66 -2 8 C-1.34 5.36 -0.68 2.72 0 0 Z " fill="#494748" transform="translate(51,98)"/>
<path d="M0 0 C2.00451121 0.30503431 4.00448218 0.64080679 6 1 C8.14255793 0.61067144 8.14255793 0.61067144 10 0 C11.66666667 0 13.33333333 0 15 0 C15.66 0.66 16.32 1.32 17 2 C17.33 1.34 17.66 0.68 18 0 C22 0 22 0 24.5 0.5625 C27.11732737 1.02053229 28.49684521 0.75094644 31 0 C31.99 0 32.98 0 34 0 C34 0.66 34 1.32 34 2 C33.01 2 32.02 2 31 2 C31 3.98 31 5.96 31 8 C25.71502591 9.05699482 25.71502591 9.05699482 23 9 C20.5 7.0625 20.5 7.0625 19 5 C18.67 5.99 18.34 6.98 18 8 C17.01 8 16.02 8 15 8 C14.67 7.01 14.34 6.02 14 5 C13.443125 5.680625 12.88625 6.36125 12.3125 7.0625 C11.549375 7.701875 10.78625 8.34125 10 9 C7.5 8.6875 7.5 8.6875 5 8 C3.948125 8.2784375 3.948125 8.2784375 2.875 8.5625 C2.25625 8.706875 1.6375 8.85125 1 9 C0.01 8.34 -0.98 7.68 -2 7 C-2.3125 4.5 -2.3125 4.5 -2 2 C-1.34 1.34 -0.68 0.68 0 0 Z M1 2 C0.67 3.32 0.34 4.64 0 6 C1.65 6 3.3 6 5 6 C5 5.01 5 4.02 5 3 C3.68 2.67 2.36 2.34 1 2 Z M8 2 C7.67 3.32 7.34 4.64 7 6 C8.32 5.67 9.64 5.34 11 5 C11 4.34 11 3.68 11 3 C10.01 2.67 9.02 2.34 8 2 Z M22 5 C26 6 26 6 26 6 Z " fill="#171D2D" transform="translate(114,112)"/>
<path d="M0 0 C0.33 0 0.66 0 1 0 C1.33 6.93 1.66 13.86 2 21 C4.29629994 22.14814997 6.07698086 22.30769809 8.625 22.5625 C9.44226563 22.64628906 10.25953125 22.73007813 11.1015625 22.81640625 C12.04128906 22.90728516 12.04128906 22.90728516 13 23 C12.67 23.99 12.34 24.98 12 26 C6.06 26 0.12 26 -6 26 C-5.01 24.02 -4.02 22.04 -3 20 C-2.29241674 16.7633037 -2.29241674 16.7633037 -2 14 C-4.31 14 -6.62 14 -9 14 C-9 15.98 -9 17.96 -9 20 C-9.99 19.67 -10.98 19.34 -12 19 C-12 14.05 -12 9.1 -12 4 C-11.01 4 -10.02 4 -9 4 C-9 5.98 -9 7.96 -9 10 C-6.69 10 -4.38 10 -2 10 C-2.04125 9.0925 -2.0825 8.185 -2.125 7.25 C-2.00468444 4.1217954 -1.6085292 2.61385994 0 0 Z " fill="#CC474B" transform="translate(39,66)"/>
<path d="M0 0 C0.99 0 1.98 0 3 0 C3 3.3 3 6.6 3 10 C3.99 10 4.98 10 6 10 C6.33 8.35 6.66 6.7 7 5 C9.375 4.375 9.375 4.375 12 4 C12.66 4.66 13.32 5.32 14 6 C14.66 5.34 15.32 4.68 16 4 C19.125 3.875 19.125 3.875 22 4 C22 6.64 22 9.28 22 12 C19.6875 12.625 19.6875 12.625 17 13 C16.01 12.34 15.02 11.68 14 11 C12.31422289 11.61674772 10.64551962 12.28272222 9 13 C8.34 12.67 7.68 12.34 7 12 C4.6670134 11.95977609 2.33293334 11.95679753 0 12 C0 8.04 0 4.08 0 0 Z M16 7 C16.33 7.99 16.66 8.98 17 10 C17.99 10 18.98 10 20 10 C19.67 8.68 19.34 7.36 19 6 C17.7763932 5.9254644 17.7763932 5.9254644 16 7 Z " fill="#171D2D" transform="translate(155,108)"/>
<path d="M0 0 C1.98 0.99 1.98 0.99 4 2 C4.33 1.34 4.66 0.68 5 0 C5.66 0 6.32 0 7 0 C7 0.99 7 1.98 7 3 C7.66 3 8.32 3 9 3 C9.33 2.01 9.66 1.02 10 0 C15 0 20 0 25 0 C25 0.66 25 1.32 25 2 C24.01 2.495 24.01 2.495 23 3 C22.34444881 5.52733235 22.34444881 5.52733235 22 8 C14.61538462 9.35384615 14.61538462 9.35384615 11.5 7.5625 C11.005 7.046875 10.51 6.53125 10 6 C9.67 6.66 9.34 7.32 9 8 C8.34 8 7.68 8 7 8 C6.67 7.34 6.34 6.68 6 6 C5.67 6.66 5.34 7.32 5 8 C4.01 7.67 3.02 7.34 2 7 C0.8125 3.4375 0.8125 3.4375 0 0 Z M13 5 C17 6 17 6 17 6 Z " fill="#171D2D" transform="translate(238,112)"/>
<path d="M0 0 C1.32 0 2.64 0 4 0 C4.99 1.98 5.98 3.96 7 6 C8.32 6 9.64 6 11 6 C11 7.98 11 9.96 11 12 C9.68 12 8.36 12 7 12 C6.67 13.32 6.34 14.64 6 16 C6.99 16 7.98 16 9 16 C8.1875 17.9375 8.1875 17.9375 7 20 C6.01 20.33 5.02 20.66 4 21 C3.67 20.34 3.34 19.68 3 19 C1.68 19 0.36 19 -1 19 C-1.33 19.99 -1.66 20.98 -2 22 C-3.32 22 -4.64 22 -6 22 C-6.4021875 21.0409375 -6.4021875 21.0409375 -6.8125 20.0625 C-7.88667752 17.66868314 -7.88667752 17.66868314 -11 17 C-11.33 15.35 -11.66 13.7 -12 12 C-10.9790625 12.99 -10.9790625 12.99 -9.9375 14 C-6.31312143 16.46766201 -4.30379794 16.39849981 0 16 C0.99 15.67 1.98 15.34 3 15 C4.20190901 11.39427296 4.32670315 8.7897565 4 5 C2.14283813 2.09190457 2.14283813 2.09190457 0 0 Z " fill="#ED987A" transform="translate(41,24)"/>
<path d="M0 0 C1.32 0 2.64 0 4 0 C4 1.32 4 2.64 4 4 C4.66 4 5.32 4 6 4 C6 2.68 6 1.36 6 0 C9.96 0 13.92 0 18 0 C19 5 19 5 19 8 C18.34 8 17.68 8 17 8 C17 5.69 17 3.38 17 1 C16.34 1 15.68 1 15 1 C15 3.31 15 5.62 15 8 C12.69 8 10.38 8 8 8 C7.67 7.34 7.34 6.68 7 6 C6.67 6.66 6.34 7.32 6 8 C5.34 8 4.68 8 4 8 C3.67 7.34 3.34 6.68 3 6 C2.67 6.66 2.34 7.32 2 8 C1.34 8 0.68 8 0 8 C0 5.36 0 2.72 0 0 Z " fill="#D3D2D3" transform="translate(25,109)"/>
<path d="M0 0 C0.33 0.99 0.66 1.98 1 3 C1.66 3 2.32 3 3 3 C3 2.01 3 1.02 3 0 C3.66 0 4.32 0 5 0 C5.33 1.32 5.66 2.64 6 4 C6.66 2.68 7.32 1.36 8 0 C8.66 0.33 9.32 0.66 10 1 C10.33 1.99 10.66 2.98 11 4 C11.33 2.68 11.66 1.36 12 0 C12.66 0 13.32 0 14 0 C14.33 0.66 14.66 1.32 15 2 C15.66 1.34 16.32 0.68 17 0 C17 2.64 17 5.28 17 8 C14.69 8.33 12.38 8.66 10 9 C10 8.34 10 7.68 10 7 C9.01 7 8.02 7 7 7 C7 7.66 7 8.32 7 9 C5.68 9 4.36 9 3 9 C3 7.68 3 6.36 3 5 C2.34 5 1.68 5 1 5 C0.67 5.99 0.34 6.98 0 8 C0 5.36 0 2.72 0 0 Z " fill="#C8C7C8" transform="translate(16,98)"/>
<path d="M0 0 C2.875 -0.125 2.875 -0.125 6 0 C6.66 0.66 7.32 1.32 8 2 C8.99 1.34 9.98 0.68 11 0 C14.51724138 0.51724138 14.51724138 0.51724138 16 2 C16.04063832 3.66617115 16.042721 5.33388095 16 7 C13.75 8.1875 13.75 8.1875 11 9 C8.6875 7.625 8.6875 7.625 7 6 C7 6.66 7 7.32 7 8 C6.360625 8.12375 5.72125 8.2475 5.0625 8.375 C4.381875 8.58125 3.70125 8.7875 3 9 C2.67 9.66 2.34 10.32 2 11 C1.34 11 0.68 11 0 11 C0 7.37 0 3.74 0 0 Z M3 2 C2.67 3.32 2.34 4.64 2 6 C2.99 6 3.98 6 5 6 C4.67 4.68 4.34 3.36 4 2 C3.67 2 3.34 2 3 2 Z M10 3 C10.33 3.99 10.66 4.98 11 6 C11.99 6 12.98 6 14 6 C13.67 4.68 13.34 3.36 13 2 C11.7763932 1.9254644 11.7763932 1.9254644 10 3 Z " fill="#171D2D" transform="translate(222,112)"/>
<path d="M0 0 C0.66 0 1.32 0 2 0 C2 0.99 2 1.98 2 3 C1.34 3 0.68 3 0 3 C0 3.66 0 4.32 0 5 C0.99 4.67 1.98 4.34 3 4 C3.73323796 1.98491642 3.73323796 1.98491642 4 0 C4.763125 0.185625 5.52625 0.37125 6.3125 0.5625 C9.08967375 1.22819173 9.08967375 1.22819173 12 0 C12 0.99 12 1.98 12 3 C12.66 3 13.32 3 14 3 C14.33 2.01 14.66 1.02 15 0 C15 2.64 15 5.28 15 8 C14.67 7.01 14.34 6.02 14 5 C13.34 5 12.68 5 12 5 C12 5.99 12 6.98 12 8 C10.68 8 9.36 8 8 8 C8 7.01 8 6.02 8 5 C7.34 5 6.68 5 6 5 C6 5.99 6 6.98 6 8 C3.36 8 0.72 8 -2 8 C-1.34 5.36 -0.68 2.72 0 0 Z " fill="#D1D0D1" transform="translate(51,98)"/>
<path d="M0 0 C6 0 6 0 8.375 1.0625 C10 3 10 3 10.375 6.5625 C10 10 10 10 8 12 C5.31160615 12.26991906 2.70858064 12.08737357 0 12 C0 8.04 0 4.08 0 0 Z M3 3 C3 5.31 3 7.62 3 10 C4.65 9.67 6.3 9.34 8 9 C8 7.35 8 5.7 8 4 C6.35 3.67 4.7 3.34 3 3 Z " fill="#171D2D" transform="translate(91,108)"/>
<path d="M0 0 C0 0.99 0 1.98 0 3 C-1.7015625 3.2165625 -1.7015625 3.2165625 -3.4375 3.4375 C-6.80777201 3.61171478 -6.80777201 3.61171478 -8 5 C-6.68 5.99 -5.36 6.98 -4 8 C-6 10 -8 12 -10 14 C-12 12 -12 12 -12.4375 8.6875 C-12 5 -12 5 -9.9375 2.0625 C-6.35134537 -0.45543836 -4.29107165 -0.4206933 0 0 Z " fill="#5C99C2" transform="translate(41,24)"/>
<path d="M0 0 C2.375 0.25 2.375 0.25 5 1 C7.42363044 4.11609628 7.17392151 7.17372685 7 11 C6.34 11 5.68 11 5 11 C4.67 11.66 4.34 12.32 4 13 C1 8.25 1 8.25 1 6 C0.05125 6.04125 -0.8975 6.0825 -1.875 6.125 C-5 6 -5 6 -7 4 C-4.50907189 2.75453595 -3.58919267 3.2232422 -1 4 C-0.67 2.68 -0.34 1.36 0 0 Z " fill="#633537" transform="translate(40,42)"/>
<path d="M0 0 C2 2 2 2 2.4375 5.3125 C2 9 2 9 -0.0625 11.9375 C-3.64865463 14.45543836 -5.70892835 14.4206933 -10 14 C-10.33 13.34 -10.66 12.68 -11 12 C-9.35 10.35 -7.7 8.7 -6 7 C-6 7.66 -6 8.32 -6 9 C-4.35 8.67 -2.7 8.34 -1 8 C-0.67 5.36 -0.34 2.72 0 0 Z " fill="#276594" transform="translate(44,27)"/>
<path d="M0 0 C0.66 0.33 1.32 0.66 2 1 C2 2.98 2 4.96 2 7 C4.31 7 6.62 7 9 7 C9 7.99 9 8.98 9 10 C6.69 10 4.38 10 2 10 C2 12.31 2 14.62 2 17 C1.01 16.67 0.02 16.34 -1 16 C-1.02685095 13.52076199 -1.04676547 11.0418116 -1.0625 8.5625 C-1.07506836 7.50192383 -1.07506836 7.50192383 -1.08789062 6.41992188 C-1.09653588 4.61306441 -1.05220011 2.80612397 -1 1 C-0.67 0.67 -0.34 0.34 0 0 Z " fill="#C83639" transform="translate(28,69)"/>
<path d="M0 0 C0.66 0.33 1.32 0.66 2 1 C1.67 1.66 1.34 2.32 1 3 C0.90444583 4.45579587 0.87015309 5.9160796 0.875 7.375 C0.87242188 8.14585938 0.86984375 8.91671875 0.8671875 9.7109375 C0.99610212 11.9328189 1.38616283 13.86618508 2 16 C0.02 16.99 0.02 16.99 -2 18 C-2.99 16.35 -3.98 14.7 -5 13 C-4.01 12.67 -3.02 12.34 -2 12 C-2 11.01 -2 10.02 -2 9 C-3.32 9 -4.64 9 -6 9 C-6 6.69 -6 4.38 -6 2 C-4.35 2 -2.7 2 -1 2 C-0.67 1.34 -0.34 0.68 0 0 Z " fill="#F48D71" transform="translate(29,26)"/>
<path d="M0 0 C1.62463842 -0.05395478 3.24978541 -0.09277195 4.875 -0.125 C5.77992188 -0.14820312 6.68484375 -0.17140625 7.6171875 -0.1953125 C10 0 10 0 12 2 C12.125 5.125 12.125 5.125 12 8 C11.01 8 10.02 8 9 8 C8.67 6.35 8.34 4.7 8 3 C7.67 4.65 7.34 6.3 7 8 C6.34 8 5.68 8 5 8 C4.67 6.35 4.34 4.7 4 3 C3.67 3 3.34 3 3 3 C2.67 4.65 2.34 6.3 2 8 C1.34 8 0.68 8 0 8 C0 5.36 0 2.72 0 0 Z " fill="#171D2D" transform="translate(209,112)"/>
<path d="M0 0 C0.33 1.32 0.66 2.64 1 4 C2.32 4 3.64 4 5 4 C5 3.34 5 2.68 5 2 C5.99 2 6.98 2 8 2 C8 2.66 8 3.32 8 4 C9.32 4 10.64 4 12 4 C12.33 3.34 12.66 2.68 13 2 C13 2.66 13 3.32 13 4 C17.64586892 3.51515724 17.64586892 3.51515724 22 2 C22 2.66 22 3.32 22 4 C22.99 4.33 23.98 4.66 25 5 C21.0186217 6.3271261 17.14954773 6.06915913 13 6 C13 7.32 13 8.64 13 10 C12.34 10 11.68 10 11 10 C11 8.35 11 6.7 11 5 C8.69 5 6.38 5 4 5 C3.67 5.66 3.34 6.32 3 7 C3 6.34 3 5.68 3 5 C1.35 5 -0.3 5 -2 5 C-1.34 4.67 -0.68 4.34 0 4 C0 2.68 0 1.36 0 0 Z " fill="#262324" transform="translate(18,103)"/>
<path d="M0 0 C2.31 0 4.62 0 7 0 C7 0.99 7 1.98 7 3 C5.68 3.33 4.36 3.66 3 4 C4.32 4.33 5.64 4.66 7 5 C7 5.66 7 6.32 7 7 C5.02 7.99 5.02 7.99 3 9 C4.32 9.33 5.64 9.66 7 10 C7 10.66 7 11.32 7 12 C4.69 12 2.38 12 0 12 C0 8.04 0 4.08 0 0 Z " fill="#171D2D" transform="translate(201,108)"/>
<path d="M0 0 C2.31 0 4.62 0 7 0 C7 2.97 7 5.94 7 9 C4.66666667 9 2.33333333 9 0 9 C0 6.03 0 3.06 0 0 Z " fill="#A5A3A4" transform="translate(35,98)"/>
<path d="M0 0 C2.31 0 4.62 0 7 0 C7 2.64 7 5.28 7 8 C4.69 8 2.38 8 0 8 C0.33 7.34 0.66 6.68 1 6 C1.66 6.33 2.32 6.66 3 7 C3 6.34 3 5.68 3 5 C2.01 4.67 1.02 4.34 0 4 C0 2.68 0 1.36 0 0 Z " fill="#B3B2B3" transform="translate(45,109)"/>
<path d="M0 0 C0.59732819 2.76264289 1 5.16032769 1 8 C0.34 8 -0.32 8 -1 8 C-1 5.69 -1 3.38 -1 1 C-1.66 1 -2.32 1 -3 1 C-3 3.31 -3 5.62 -3 8 C-4.65 7.67 -6.3 7.34 -8 7 C-8 5.02 -8 3.04 -8 1 C-5.07175348 0.02391783 -3.04386724 -0.08226668 0 0 Z " fill="#989697" transform="translate(43,109)"/>
<path d="M0 0 C0.639375 0.66 1.27875 1.32 1.9375 2 C6.01184642 4.66079766 9.25661115 4.54184779 14 4 C14.99 3.67 15.98 3.34 17 3 C16.67 3.99 16.34 4.98 16 6 C14.35 6.33 12.7 6.66 11 7 C10.67 7.99 10.34 8.98 10 10 C8.68 10 7.36 10 6 10 C5.731875 9.360625 5.46375 8.72125 5.1875 8.0625 C4.11332248 5.66868314 4.11332248 5.66868314 1 5 C0.67 3.35 0.34 1.7 0 0 Z " fill="#F2A07F" transform="translate(29,36)"/>
<path d="M0 0 C2.97 0 5.94 0 9 0 C9.33 1.32 9.66 2.64 10 4 C9.34 4 8.68 4 8 4 C8 3.34 8 2.68 8 2 C6.02 2 4.04 2 2 2 C2.309375 2.8971875 2.309375 2.8971875 2.625 3.8125 C3 6 3 6 1 9 C-0.32 8.67 -1.64 8.34 -3 8 C-1.68 7.67 -0.36 7.34 1 7 C0.67 4.69 0.34 2.38 0 0 Z " fill="#E73135" transform="translate(32,51)"/>
<path d="M0 0 C0.66 1.32 1.32 2.64 2 4 C1.01 4.66 0.02 5.32 -1 6 C-1 6.99 -1 7.98 -1 9 C0.32 9.66 1.64 10.32 3 11 C3 11.66 3 12.32 3 13 C2.01 13.33 1.02 13.66 0 14 C-2.1875 12.5625 -2.1875 12.5625 -4 11 C-3.67 10.67 -3.34 10.34 -3 10 C-3.04125 8.88625 -3.0825 7.7725 -3.125 6.625 C-3 3 -3 3 -1.5 1.0625 C-1.005 0.711875 -0.51 0.36125 0 0 Z " fill="#2A3435" transform="translate(49,42)"/>
<path d="M0 0 C2.31 0.33 4.62 0.66 7 1 C7 3.31 7 5.62 7 8 C6.34 8 5.68 8 5 8 C4.67 6.35 4.34 4.7 4 3 C3.67 3 3.34 3 3 3 C2.67 4.65 2.34 6.3 2 8 C1.34 8 0.68 8 0 8 C0 5.36 0 2.72 0 0 Z " fill="#171D2D" transform="translate(184,112)"/>
<path d="M0 0 C3 0 6 0 9 0 C10 2 10 2 9.0625 5.125 C8.711875 6.07375 8.36125 7.0225 8 8 C7.731875 7.401875 7.46375 6.80375 7.1875 6.1875 C6.01506533 4.02775192 4.80630718 2.64209744 3 1 C3 3.31 3 5.62 3 8 C2.34 8 1.68 8 1 8 C0.67 5.36 0.34 2.72 0 0 Z " fill="#E4E4E4" transform="translate(53,109)"/>
<path d="M0 0 C3.22430866 4.83646298 3.09242903 7.26939984 3 13 C2.34 12.67 1.68 12.34 1 12 C1 10.35 1 8.7 1 7 C-0.32 6.67 -1.64 6.34 -3 6 C-2.625 3.5625 -2.625 3.5625 -2 1 C-1.34 0.67 -0.68 0.34 0 0 Z " fill="#613435" transform="translate(50,24)"/>
<path d="M0 0 C1.98 0.495 1.98 0.495 4 1 C4 3.31 4 5.62 4 8 C3.01 8.33 2.02 8.66 1 9 C0.34 8.67 -0.32 8.34 -1 8 C-1 4.88742431 -0.82638376 2.89234315 0 0 Z " fill="#171D2D" transform="translate(107,112)"/>
<path d="M0 0 C2.31 0 4.62 0 7 0 C7 0.33 7 0.66 7 1 C5.35 1 3.7 1 2 1 C2 3.64 2 6.28 2 9 C0.68 9 -0.64 9 -2 9 C-1.125 2.25 -1.125 2.25 0 0 Z " fill="#949293" transform="translate(22,108)"/>
<path d="M0 0 C0.99 0.33 1.98 0.66 3 1 C2.01 1.33 1.02 1.66 0 2 C0 4.31 0 6.62 0 9 C-1.32 9.33 -2.64 9.66 -4 10 C-3.34 11.65 -2.68 13.3 -2 15 C-3.32 14.67 -4.64 14.34 -6 14 C-5.67 12.35 -5.34 10.7 -5 9 C-3.68 8.67 -2.36 8.34 -1 8 C-1.309375 6.8553125 -1.309375 6.8553125 -1.625 5.6875 C-2 3 -2 3 0 0 Z " fill="#E13135" transform="translate(16,14)"/>
<path d="M0 0 C2.98704569 0.49784095 4.39324263 1.26216175 7 3 C5.33333333 3 3.66666667 3 2 3 C1.67 4.98 1.34 6.96 1 9 C1.66 9.33 2.32 9.66 3 10 C1.68 9.67 0.36 9.34 -1 9 C-1.09765625 2.84765625 -1.09765625 2.84765625 -1 1 C-0.67 0.67 -0.34 0.34 0 0 Z " fill="#E73135" transform="translate(57,28)"/>
<path d="M0 0 C1.98 0 3.96 0 6 0 C5.34 0.66 4.68 1.32 4 2 C3.59952556 4.32275177 3.2602896 6.65739357 3 9 C1.68 8.67 0.36 8.34 -1 8 C-1 7.34 -1 6.68 -1 6 C-0.34 6 0.32 6 1 6 C1 5.01 1 4.02 1 3 C0.34 3 -0.32 3 -1 3 C-0.67 2.01 -0.34 1.02 0 0 Z " fill="#3C393A" transform="translate(52,95)"/>
<path d="M0 0 C0.33 0.66 0.66 1.32 1 2 C1.99 2.33 2.98 2.66 4 3 C3.67 3.99 3.34 4.98 3 6 C0.69 6 -1.62 6 -4 6 C-1.125 1.125 -1.125 1.125 0 0 Z " fill="#109FDC" transform="translate(37,34)"/>
<path d="M0 0 C6.25201072 0.58981233 6.25201072 0.58981233 8.9375 2.0625 C10.69959328 5.27572893 10.17782537 8.3842174 10 12 C9.67 12 9.34 12 9 12 C8.34 9.36 7.68 6.72 7 4 C3.20211302 2.87873219 3.20211302 2.87873219 0 3 C0 2.01 0 1.02 0 0 Z " fill="#243435" transform="translate(12,24)"/>
<path d="M0 0 C1.65 0 3.3 0 5 0 C5 0.66 5 1.32 5 2 C4.34 2 3.68 2 3 2 C3 3.98 3 5.96 3 8 C2.01 8 1.02 8 0 8 C0 5.36 0 2.72 0 0 Z " fill="#171D2D" transform="translate(178,112)"/>
<path d="M0 0 C2 1.375 2 1.375 4 3 C4 3.66 4 4.32 4 5 C2 6.625 2 6.625 0 8 C-0.33 6.68 -0.66 5.36 -1 4 C-2.32 3.67 -3.64 3.34 -5 3 C-4.360625 2.87625 -3.72125 2.7525 -3.0625 2.625 C-2.0415625 2.315625 -2.0415625 2.315625 -1 2 C-0.67 1.34 -0.34 0.68 0 0 Z " fill="#EF3E3E" transform="translate(46,20)"/>
<path d="M0 0 C0.33 0.66 0.66 1.32 1 2 C0.34 2 -0.32 2 -1 2 C-1 2.66 -1 3.32 -1 4 C-3.64 4 -6.28 4 -9 4 C-9 3.01 -9 2.02 -9 1 C-4.545 0.505 -4.545 0.505 0 0 Z " fill="#283435" transform="translate(43,13)"/>
<path d="M0 0 C0.33 0.99 0.66 1.98 1 3 C1.66 3 2.32 3 3 3 C3 2.01 3 1.02 3 0 C3.66 0 4.32 0 5 0 C5 2.64 5 5.28 5 8 C4.67 7.01 4.34 6.02 4 5 C3.01 5 2.02 5 1 5 C0.67 5.99 0.34 6.98 0 8 C0 5.36 0 2.72 0 0 Z " fill="#E0E0E0" transform="translate(16,98)"/>
<path d="M0 0 C0.33 1.32 0.66 2.64 1 4 C0.01 4.495 0.01 4.495 -1 5 C-2.13350534 7.01669827 -2.13350534 7.01669827 -3 9 C-3.33 8.01 -3.66 7.02 -4 6 C-4.66 5.34 -5.32 4.68 -6 4 C-2.25 0 -2.25 0 0 0 Z " fill="#D83539" transform="translate(31,19)"/>
<path d="M0 0 C0.99 0 1.98 0 3 0 C3 2.64 3 5.28 3 8 C2.01 8 1.02 8 0 8 C0 5.36 0 2.72 0 0 Z " fill="#171D2D" transform="translate(102,112)"/>
<path d="M0 0 C0.66 0.33 1.32 0.66 2 1 C2.625 3.5625 2.625 3.5625 3 6 C2.01 6 1.02 6 0 6 C0 6.66 0 7.32 0 8 C-1.32 8 -2.64 8 -4 8 C-3.67 6.68 -3.34 5.36 -3 4 C-2.67 4.66 -2.34 5.32 -2 6 C-1.34 4.02 -0.68 2.04 0 0 Z " fill="#ABAAAB" transform="translate(23,99)"/>
<path d="M0 0 C1.98 0.66 3.96 1.32 6 2 C6 2.66 6 3.32 6 4 C4.68 4 3.36 4 2 4 C1.01 5.485 1.01 5.485 0 7 C-0.66 7 -1.32 7 -2 7 C-1.42415568 4.61435923 -0.77772405 2.33317216 0 0 Z " fill="#95D1F2" transform="translate(34,32)"/>
<path d="M0 0 C1.65 0 3.3 0 5 0 C4.67 1.65 4.34 3.3 4 5 C2.68 4.67 1.36 4.34 0 4 C0 2.68 0 1.36 0 0 Z " fill="#DC787A" transform="translate(67,4)"/>
<path d="M0 0 C-1.25178596 2.50357192 -2.99981158 4.06433379 -5 6 C-4.67 6.66 -4.34 7.32 -4 8 C-5.32 7.67 -6.64 7.34 -8 7 C-7.62005832 4.24542282 -7.1926367 3.17979426 -5.125 1.25 C-3 0 -3 0 0 0 Z " fill="#E73136" transform="translate(55,44)"/>
<path d="M0 0 C0.33 0.99 0.66 1.98 1 3 C1.99 3 2.98 3 4 3 C3.1875 4.9375 3.1875 4.9375 2 7 C1.01 7.33 0.02 7.66 -1 8 C-2.2077558 4.37673261 -1.54311128 3.35853631 0 0 Z " fill="#DE4744" transform="translate(46,37)"/>
<path d="M0 0 C2.475 0.99 2.475 0.99 5 2 C4.34 3.65 3.68 5.3 3 7 C2.01 6.34 1.02 5.68 0 5 C-0.1875 2.375 -0.1875 2.375 0 0 Z " fill="#59B1DF" transform="translate(29,31)"/>
<path d="M0 0 C2.31 0 4.62 0 7 0 C7 0.66 7 1.32 7 2 C6.34 2 5.68 2 5 2 C5 2.66 5 3.32 5 4 C3.68 4 2.36 4 1 4 C0.67 2.68 0.34 1.36 0 0 Z " fill="#E03136" transform="translate(35,17)"/>
<path d="M0 0 C0.99 0.33 1.98 0.66 3 1 C3 2.98 3 4.96 3 7 C2.01 7.33 1.02 7.66 0 8 C0 5.36 0 2.72 0 0 Z " fill="#282526" transform="translate(56,110)"/>
<path d="M0 0 C0 3 0 3 -1.20703125 4.70703125 C-3.60218585 6.43425603 -4.81462165 6.1454951 -7.6875 5.6875 C-8.49574219 5.56761719 -9.30398437 5.44773437 -10.13671875 5.32421875 C-10.75160156 5.21722656 -11.36648437 5.11023438 -12 5 C-12 4.67 -12 4.34 -12 4 C-10.7625 3.896875 -9.525 3.79375 -8.25 3.6875 C-4.7207134 3.26198318 -2.62839034 2.51887408 0 0 Z " fill="#C01D21" transform="translate(56,86)"/>
<path d="M0 0 C0.66 0 1.32 0 2 0 C2 1.32 2 2.64 2 4 C2.66 4.33 3.32 4.66 4 5 C3.34 5 2.68 5 2 5 C1.67 5.66 1.34 6.32 1 7 C1 6.34 1 5.68 1 5 C0.34 5 -0.32 5 -1 5 C-1.33 5.99 -1.66 6.98 -2 8 C-2.33 7.34 -2.66 6.68 -3 6 C-2.67 5.34 -2.34 4.68 -2 4 C-1.34 4 -0.68 4 0 4 C0 2.68 0 1.36 0 0 Z " fill="#242122" transform="translate(63,103)"/>
<path d="M0 0 C0.66 0 1.32 0 2 0 C2 2.97 2 5.94 2 9 C1.34 9 0.68 9 0 9 C-1.125 2.25 -1.125 2.25 0 0 Z " fill="#999898" transform="translate(40,98)"/>
<path d="M0 0 C1.32 0.33 2.64 0.66 4 1 C3.39816251 3.02045442 2.72693904 5.02111039 2 7 C1.01 7.495 1.01 7.495 0 8 C0 5.36 0 2.72 0 0 Z " fill="#E73135" transform="translate(59,41)"/>
<path d="M0 0 C0.99 1.32 1.98 2.64 3 4 C2.67 4.66 2.34 5.32 2 6 C-1 5 -1 5 -2.1875 2.9375 C-2.5896875 1.9784375 -2.5896875 1.9784375 -3 1 C-2.01 0.67 -1.02 0.34 0 0 Z " fill="#DE4443" transform="translate(27,38)"/>
<path d="M0 0 C0.99 0 1.98 0 3 0 C2.67 1.65 2.34 3.3 2 5 C1.01 5 0.02 5 -1 5 C-0.67 3.35 -0.34 1.7 0 0 Z " fill="#2E3032" transform="translate(48,35)"/>
<path d="M0 0 C0 1.98 0 3.96 0 6 C-1.32 5.67 -2.64 5.34 -4 5 C-4 3.68 -4 2.36 -4 1 C-1 0 -1 0 0 0 Z " fill="#FA4444" transform="translate(52,30)"/>
<path d="M0 0 C1.98 0.99 1.98 0.99 4 2 C3.6875 3.9375 3.6875 3.9375 3 6 C2.01 6.33 1.02 6.66 0 7 C0 4.69 0 2.38 0 0 Z " fill="#E73A3C" transform="translate(23,28)"/>
<path d="M0 0 C1.32 0.66 2.64 1.32 4 2 C1.03 4.475 1.03 4.475 -2 7 C-1.34 4.69 -0.68 2.38 0 0 Z " fill="#2A3435" transform="translate(25,18)"/>
<path d="M0 0 C1.32 0 2.64 0 4 0 C4 1.32 4 2.64 4 4 C3.01 4.33 2.02 4.66 1 5 C0.67 3.35 0.34 1.7 0 0 Z " fill="#272F31" transform="translate(40,42)"/>
<path d="M0 0 C1.98 0 3.96 0 6 0 C6 0.66 6 1.32 6 2 C4.02 2.33 2.04 2.66 0 3 C0 2.01 0 1.02 0 0 Z " fill="#1C6FA6" transform="translate(35,25)"/>
<path d="M0 0 C0.66 0 1.32 0 2 0 C2 0.99 2 1.98 2 3 C1.01 3 0.02 3 -1 3 C-0.67 2.01 -0.34 1.02 0 0 Z " fill="#171D2D" transform="translate(103,108)"/>
<path d="M0 0 C0.99 0 1.98 0 3 0 C3 0.66 3 1.32 3 2 C2.01 2 1.02 2 0 2 C0 1.34 0 0.68 0 0 Z " fill="#171D2D" transform="translate(261,118)"/>
<path d="M0 0 C0.99 0 1.98 0 3 0 C3 0.66 3 1.32 3 2 C2.01 2 1.02 2 0 2 C0 1.34 0 0.68 0 0 Z " fill="#171D2D" transform="translate(192,118)"/>
<path d="M0 0 C0.99 0 1.98 0 3 0 C3 0.66 3 1.32 3 2 C2.01 2 1.02 2 0 2 C0 1.34 0 0.68 0 0 Z " fill="#171D2D" transform="translate(146,118)"/>
</svg>
